<?xml version="1.0" encoding="UTF-8" standalone="no"?>
<!-- Uploaded to: SVG Repo, www.svgrepo.com, Transformed by: SVG Repo Mixer Tools -->

<svg
   version="1.1"
   id="_x35_"
   viewBox="0 0 195.25423 291.47693"
   xml:space="preserve"
   width="24.406778"
   height="36.434616"
   fill="#000000"
   xmlns="http://www.w3.org/2000/svg"
   xmlns:svg="http://www.w3.org/2000/svg"><defs
   id="defs84" />





<g
   id="SVGRepo_iconCarrier"
   transform="matrix(0.56929086,0,0,0.56929086,9.716797e-7,-1.3476563e-6)"> <g
   id="g78"> <g
   id="g74"> <rect
   x="119.211"
   y="443.64999"
   style="fill:#7a7a77"
   width="106.533"
   height="10.429"
   id="rect46" /> <polygon
   style="fill:#7a7a77"
   points="220.264,475.317 206.66,485.932 138.379,485.932 125.238,475.317 122.641,473.216 222.954,473.216 "
   id="polygon48" /> <rect
   x="119.211"
   y="414"
   style="fill:#7a7a77"
   width="106.533"
   height="10.497"
   id="rect50" /> <path
   style="fill:#646363"
   d="M 225.744,405.821 V 415.84 H 119.211 v -10.019 c 24.947,0 53.301,0 53.301,0 0,0 28.286,0 53.232,0 z"
   id="path52" /> <rect
   x="119.211"
   y="385.715"
   style="fill:#7a7a77"
   width="106.533"
   height="10.429"
   id="rect54" /> <path
   style="fill:#646363"
   d="m 225.744,377.535 v 10.02 H 119.211 v -10.02 c 24.947,0 53.301,0 53.301,0 0,0 28.286,0 53.232,0 z"
   id="path56" /> <path
   style="fill:#646363"
   d="m 225.744,435.335 v 10.019 H 119.211 v -10.019 c 24.947,0 53.301,0 53.301,0 0,0 28.286,0 53.232,0 z"
   id="path58" /> <polygon
   style="fill:#646363"
   points="122.641,473.216 222.954,473.216 220.264,475.317 125.238,475.317 "
   id="polygon60" /> <path
   style="fill:#e7e2e0"
   d="m 239.512,402.209 v 4.499 c 0,4.021 -4.499,7.293 -10.02,7.293 h -114.03 c -5.453,0 -9.951,-3.272 -9.951,-7.293 v -4.499 c 0,-4.021 4.499,-7.293 9.951,-7.293 h 114.031 c 5.52,0 10.019,3.272 10.019,7.293 z"
   id="path62" /> <path
   style="fill:#e7e2e0"
   d="m 239.512,431.79 v 4.498 c 0,4.022 -4.499,7.362 -10.02,7.362 h -114.03 c -5.453,0 -9.951,-3.34 -9.951,-7.362 v -4.498 c 0,-4.022 4.499,-7.293 9.951,-7.293 h 114.031 c 5.52,0 10.019,3.271 10.019,7.293 z"
   id="path64" /> <path
   style="fill:#e7e2e0"
   d="m 239.512,461.371 v 4.567 c 0,4.021 -4.499,7.293 -10.02,7.293 h -114.03 c -5.453,0 -9.951,-3.272 -9.951,-7.293 v -4.567 c 0,-0.477 0.068,-1.023 0.205,-1.5 0.954,-3.272 4.976,-5.793 9.747,-5.793 h 114.031 c 5.519,0.001 10.018,3.272 10.018,7.293 z"
   id="path66" /> <path
   style="fill:#867063"
   d="m 204.395,484.045 h -63.153 -6.579 c 0,15.44 17.073,27.955 38.134,27.955 v 0 c 21.061,0 38.134,-12.516 38.134,-27.955 z"
   id="path68" /> <path
   style="fill:#efe7bd"
   d="m 342.978,171.489 c 0,47.371 -19.153,90.243 -50.233,121.323 -31.012,31.013 -49.893,41.305 -52.619,91.13 h -14.382 c -14.109,0 -31.694,0 -31.694,0 h -45.121 c 0,0 -16.017,0 -29.717,0 H 102.854 C 100.469,340.796 86.019,327.301 62.095,304.4 58.346,300.788 54.393,296.971 50.235,292.812 19.153,261.732 0,218.861 0,171.489 0,124.117 19.153,81.246 50.234,50.234 81.246,19.221 124.118,0 171.489,0 c 38.033,0 73.204,12.406 101.626,33.398 6.952,5.112 13.495,10.769 19.63,16.836 2.113,2.044 4.158,4.225 6.134,6.407 3.817,4.294 7.498,8.793 10.906,13.427 20.925,28.423 33.193,63.457 33.193,101.421 z"
   id="path70" /> <path
   style="opacity:0.2;fill:#ffffff"
   d="M 303.923,62.571 61.957,304.537 C 58.276,300.789 54.323,296.903 50.234,292.813 19.153,261.732 0,218.861 0,171.489 0,124.117 19.153,81.246 50.234,50.234 81.246,19.221 124.118,0 171.489,0 c 38.033,0 73.204,12.406 101.626,33.398 6.952,5.112 13.495,10.769 19.63,16.836 2.113,2.044 4.158,4.225 6.134,6.407 1.704,1.977 3.408,3.953 5.044,5.93 z"
   id="path72" /> </g> <ellipse
   transform="matrix(0.7237,-0.6901,0.6901,0.7237,-26.6641,77.702)"
   style="opacity:0.2;fill:#ffffff"
   cx="83.704002"
   cy="72.150002"
   rx="45.783001"
   ry="25.549999"
   id="ellipse76" /> </g> </g>

</svg>
